<svg width="21.500000" height="21.500000" viewBox="0 0 21.5 21.5" fill="none" xmlns="http://www.w3.org/2000/svg" xmlns:xlink="http://www.w3.org/1999/xlink">
	<desc>
			Created with Pixso.
	</desc>
	<defs/>
	<path id="Vector (Border)" d="M7.75 21.5L13.75 21.5C15.08 21.5 16.22 21.35 17.16 21.07C18.17 20.77 19 20.3 19.65 19.65C20.3 19 20.77 18.17 21.07 17.16C21.35 16.22 21.5 15.08 21.5 13.75L21.5 7.75C21.5 6.41 21.35 5.27 21.07 4.33C20.77 3.32 20.3 2.49 19.65 1.84C19 1.19 18.17 0.72 17.16 0.42C16.22 0.14 15.08 0 13.75 0L7.75 0C6.41 0 5.27 0.14 4.33 0.42C3.32 0.72 2.49 1.19 1.84 1.84C1.19 2.49 0.72 3.32 0.42 4.33C0.14 5.27 0 6.41 0 7.75L0 13.75C0 15.08 0.14 16.22 0.42 17.16C0.72 18.17 1.19 19 1.84 19.65C2.49 20.3 3.32 20.77 4.33 21.07C5.27 21.35 6.41 21.5 7.75 21.5ZM16.73 19.64C15.93 19.88 14.93 20 13.75 20L7.75 20C6.56 20 5.56 19.88 4.76 19.64C3.99 19.41 3.37 19.06 2.9 18.59C2.43 18.12 2.08 17.5 1.85 16.73C1.61 15.93 1.5 14.93 1.5 13.75L1.5 7.75C1.5 6.56 1.61 5.56 1.85 4.76C2.08 3.99 2.43 3.37 2.9 2.9C3.37 2.43 3.99 2.08 4.76 1.85C5.56 1.61 6.56 1.5 7.75 1.5L13.75 1.5C14.93 1.5 15.93 1.61 16.73 1.85C17.5 2.08 18.12 2.43 18.59 2.9C19.06 3.37 19.41 3.99 19.64 4.76C19.88 5.56 20 6.56 20 7.75L20 13.75C20 14.93 19.88 15.93 19.64 16.73C19.41 17.5 19.06 18.12 18.59 18.59C18.12 19.06 17.5 19.41 16.73 19.64Z" fill="#9197B3" fill-opacity="1.000000" fill-rule="evenodd"/>
	<path id="Vector (Border)" d="M11.07 14.22C11.12 14.23 11.16 14.24 11.21 14.25C11.44 14.29 11.68 14.31 11.92 14.32C12.14 14.33 12.36 14.32 12.58 14.3C12.79 14.28 13.01 14.24 13.22 14.19C13.44 14.14 13.66 14.07 13.87 13.99C14.07 13.91 14.27 13.82 14.46 13.71C14.6 13.63 14.74 13.55 14.87 13.46C15.11 13.29 15.34 13.1 15.56 12.88C15.81 12.63 16.03 12.36 16.22 12.06C16.38 11.81 16.52 11.54 16.63 11.26C16.75 10.97 16.83 10.68 16.89 10.39C16.96 10.07 16.99 9.74 16.99 9.41C16.99 9.06 16.95 8.72 16.88 8.38C16.82 8.1 16.74 7.83 16.63 7.56C16.51 7.27 16.37 7 16.2 6.74C16.02 6.45 15.8 6.19 15.55 5.94C15.3 5.69 15.03 5.47 14.73 5.28C14.48 5.12 14.21 4.98 13.93 4.87C13.64 4.75 13.36 4.67 13.07 4.61C12.74 4.54 12.41 4.51 12.08 4.51C11.73 4.51 11.39 4.54 11.06 4.61C10.78 4.67 10.5 4.76 10.23 4.87C9.94 4.98 9.67 5.13 9.41 5.29C9.12 5.48 8.85 5.7 8.6 5.94C8.41 6.14 8.23 6.35 8.07 6.57C7.97 6.72 7.87 6.88 7.78 7.04C7.68 7.22 7.6 7.4 7.52 7.58C7.43 7.81 7.36 8.04 7.3 8.28C7.26 8.47 7.22 8.67 7.2 8.87C7.17 9.1 7.16 9.34 7.17 9.58C7.18 9.81 7.2 10.04 7.24 10.27C7.25 10.32 7.26 10.38 7.27 10.43L4.99 12.7C4.83 12.88 4.69 13.12 4.6 13.38C4.5 13.66 4.47 13.92 4.51 14.15L4.67 15.37C4.7 15.54 4.77 15.73 4.85 15.89C4.88 15.94 4.91 15.99 4.94 16.04C5 16.14 5.08 16.23 5.16 16.32C5.27 16.43 5.39 16.52 5.51 16.6C5.69 16.69 5.94 16.79 6.13 16.82L7.33 16.98C7.58 17.01 7.84 16.99 8.11 16.9C8.39 16.81 8.62 16.67 8.79 16.49L11.07 14.22ZM10.67 12.66C10.53 12.69 10.41 12.76 10.32 12.85L7.73 15.43C7.7 15.44 7.59 15.49 7.57 15.49L6.33 15.33C6.31 15.32 6.25 15.29 6.23 15.27C6.19 15.22 6.16 15.18 6.16 15.14L6 13.96C6.01 13.93 6.04 13.8 6.05 13.77L8.64 11.19C8.73 11.09 8.8 10.97 8.83 10.84C8.87 10.7 8.86 10.57 8.82 10.43C8.73 10.13 8.68 9.83 8.67 9.52C8.66 9.22 8.69 8.92 8.76 8.62C8.83 8.32 8.94 8.04 9.09 7.77C9.24 7.49 9.43 7.24 9.67 7.01C9.84 6.83 10.04 6.67 10.24 6.54C10.41 6.43 10.6 6.34 10.79 6.26C10.97 6.19 11.16 6.13 11.35 6.09C11.59 6.04 11.83 6.01 12.08 6.01C12.32 6.01 12.55 6.03 12.78 6.08C12.98 6.12 13.17 6.18 13.36 6.26C13.55 6.34 13.74 6.43 13.91 6.54C14.12 6.67 14.31 6.83 14.5 7.01C14.67 7.18 14.82 7.37 14.95 7.57C15.07 7.75 15.16 7.93 15.24 8.13C15.31 8.3 15.37 8.48 15.41 8.67C15.46 8.91 15.49 9.16 15.49 9.41C15.49 9.64 15.47 9.88 15.42 10.1C15.38 10.3 15.32 10.5 15.24 10.69C15.16 10.89 15.07 11.07 14.96 11.24C14.83 11.45 14.67 11.64 14.49 11.83C14.25 12.06 13.99 12.26 13.71 12.41C13.45 12.56 13.17 12.66 12.87 12.73C12.56 12.81 12.25 12.84 11.94 12.82C11.65 12.81 11.36 12.76 11.07 12.67C10.94 12.63 10.8 12.62 10.67 12.66Z" fill="#9197B3" fill-opacity="1.000000" fill-rule="evenodd"/>
	<path id="Vector (Border)" d="M8.88 13.64C8.58 13.34 8.12 13.34 7.82 13.63C7.52 13.93 7.52 14.39 7.81 14.69L8.66 15.55C8.96 15.85 9.42 15.85 9.72 15.56C10.02 15.26 10.02 14.8 9.73 14.5L8.88 13.64Z" fill="#9197B3" fill-opacity="1.000000" fill-rule="evenodd"/>
	<path id="Vector (Border)" d="M12.15 8.45C12.71 8.45 13.15 8.89 13.15 9.45C13.15 10.01 12.71 10.45 12.15 10.45C11.59 10.45 11.14 10.01 11.14 9.45C11.14 8.89 11.59 8.45 12.15 8.45Z" fill="#9197B3" fill-opacity="1.000000" fill-rule="evenodd"/>
</svg>
