<svg width="20.004181" height="20.004089" viewBox="0 0 20.0042 20.0041" fill="none" xmlns="http://www.w3.org/2000/svg" xmlns:xlink="http://www.w3.org/1999/xlink">
	<desc>
			Created with Pixso.
	</desc>
	<defs/>
	<path id="Vector (Border)" d="M7.04 17.78C7.67 17.92 8.33 18 9 18C9.66 18 10.32 17.92 10.95 17.78C11.48 17.67 11.99 17.5 12.5 17.29C13.01 17.07 13.49 16.82 13.94 16.52C14.45 16.18 14.92 15.8 15.36 15.36C15.8 14.92 16.18 14.45 16.52 13.94C16.82 13.49 17.07 13.01 17.29 12.5C17.5 11.99 17.67 11.48 17.78 10.95C17.92 10.32 18 9.66 18 9C18 8.33 17.92 7.67 17.78 7.04C17.67 6.51 17.5 6 17.29 5.49C17.07 4.98 16.82 4.5 16.52 4.05C16.18 3.54 15.8 3.07 15.36 2.63C14.92 2.19 14.45 1.81 13.94 1.47C13.49 1.18 13.01 0.92 12.5 0.7C11.99 0.49 11.48 0.32 10.95 0.21C10.32 0.07 9.66 0 9 0C8.33 0 7.67 0.07 7.04 0.21C6.51 0.32 6 0.49 5.49 0.7C4.98 0.92 4.5 1.17 4.05 1.47C3.54 1.81 3.07 2.19 2.63 2.63C2.19 3.07 1.81 3.54 1.47 4.05C1.17 4.5 0.92 4.98 0.7 5.49C0.49 6 0.32 6.51 0.21 7.04C0.07 7.67 0 8.33 0 9C0 9.66 0.07 10.32 0.21 10.95C0.32 11.48 0.49 11.99 0.7 12.5C0.92 13.01 1.18 13.49 1.47 13.94C1.81 14.45 2.19 14.92 2.63 15.36C3.07 15.8 3.54 16.18 4.05 16.52C4.5 16.82 4.98 17.07 5.49 17.29C6 17.5 6.51 17.67 7.04 17.78ZM10.56 15.82C10.05 15.94 9.53 16 9 16C8.46 16 7.94 15.94 7.43 15.82C7.04 15.73 6.65 15.61 6.27 15.45C5.88 15.28 5.51 15.08 5.17 14.86C4.76 14.59 4.39 14.29 4.05 13.94C3.7 13.6 3.4 13.23 3.13 12.83C2.91 12.48 2.71 12.11 2.54 11.72C2.38 11.34 2.26 10.95 2.17 10.56C2.05 10.05 2 9.53 2 9C2 8.46 2.05 7.94 2.17 7.43C2.26 7.04 2.38 6.65 2.54 6.27C2.71 5.88 2.91 5.51 3.13 5.17C3.4 4.76 3.7 4.39 4.05 4.05C4.39 3.7 4.76 3.4 5.17 3.13C5.51 2.91 5.88 2.71 6.27 2.54C6.65 2.38 7.04 2.26 7.43 2.17C7.94 2.05 8.46 2 9 2C9.53 2 10.05 2.05 10.56 2.17C10.95 2.26 11.34 2.38 11.72 2.54C12.11 2.71 12.48 2.91 12.83 3.13C13.23 3.4 13.6 3.7 13.94 4.05C14.29 4.39 14.59 4.76 14.86 5.17C15.08 5.51 15.28 5.88 15.45 6.27C15.61 6.65 15.73 7.04 15.82 7.43C15.94 7.94 16 8.46 16 9C16 9.53 15.94 10.05 15.82 10.56C15.73 10.95 15.61 11.34 15.45 11.72C15.28 12.11 15.08 12.48 14.86 12.83C14.59 13.23 14.29 13.6 13.94 13.94C13.6 14.29 13.23 14.59 12.83 14.86C12.48 15.08 12.11 15.28 11.72 15.45C11.34 15.61 10.95 15.73 10.56 15.82Z" fill="#7E7E7E" fill-opacity="1.000000" fill-rule="evenodd"/>
	<path id="Vector (Border)" d="M15.35 13.94C14.96 13.54 14.33 13.54 13.94 13.94C13.54 14.33 13.54 14.96 13.94 15.35L18.29 19.7C18.68 20.1 19.31 20.1 19.7 19.7C20.1 19.31 20.1 18.68 19.7 18.29L15.35 13.94Z" fill="#7E7E7E" fill-opacity="1.000000" fill-rule="evenodd"/>
</svg>
