<svg width="21.500000" height="20.000427" viewBox="0 0 21.5 20.0004" fill="none" xmlns="http://www.w3.org/2000/svg" xmlns:xlink="http://www.w3.org/1999/xlink">
	<desc>
			Created with Pixso.
	</desc>
	<defs/>
	<path id="Vector (Border)" d="M8.5 17.1C8.21 17.28 7.89 17.42 7.55 17.54C7.51 17.55 7.48 17.56 7.44 17.57C6.96 17.72 6.45 17.8 5.93 17.8C5.37 17.8 4.85 17.72 4.34 17.56C4 17.44 3.64 17.28 3.35 17.1C3.48 17.35 3.66 17.57 3.89 17.77C4.13 17.96 4.49 18.18 4.79 18.3C4.88 18.33 4.98 18.36 5.07 18.38C5.34 18.46 5.63 18.5 5.93 18.5C6.23 18.5 6.52 18.46 6.8 18.38C6.89 18.36 6.97 18.33 7.06 18.3C7.36 18.19 7.63 18.03 7.87 17.84C8.1 17.64 8.37 17.35 8.5 17.1ZM8.97 13.58C8.82 13.72 8.75 13.9 8.75 14.11C8.75 14.28 8.72 14.45 8.68 14.61C8.65 14.73 8.6 14.84 8.55 14.95C8.42 15.2 8.23 15.43 7.98 15.63C7.72 15.84 7.42 16 7.08 16.11C6.72 16.24 6.33 16.3 5.93 16.3C5.52 16.3 5.13 16.24 4.77 16.12C4.42 16 4.12 15.84 3.86 15.64C3.62 15.44 3.43 15.21 3.3 14.95C3.25 14.85 3.2 14.75 3.17 14.64C3.12 14.47 3.1 14.29 3.1 14.11C3.1 13.9 3.02 13.72 2.88 13.58C2.73 13.43 2.55 13.36 2.35 13.36C2.14 13.36 1.96 13.43 1.82 13.58C1.67 13.72 1.6 13.9 1.6 14.11L1.6 16.14C1.6 16.37 1.62 16.6 1.67 16.83C1.72 17.12 1.82 17.4 1.95 17.68C2 17.78 2.06 17.87 2.12 17.97C2.32 18.31 2.59 18.63 2.91 18.9C3 18.98 3.1 19.06 3.2 19.14C3.53 19.37 3.89 19.56 4.28 19.71C4.45 19.77 4.62 19.82 4.8 19.86C5.17 19.95 5.54 20 5.93 20C6.32 20 6.7 19.95 7.07 19.86C7.24 19.82 7.41 19.77 7.57 19.71C7.96 19.56 8.32 19.37 8.65 19.14C8.75 19.06 8.85 18.98 8.94 18.9C9.26 18.63 9.52 18.32 9.72 17.98C9.78 17.88 9.84 17.78 9.89 17.67C10.02 17.4 10.12 17.12 10.18 16.84C10.22 16.61 10.25 16.37 10.25 16.14L10.25 14.11C10.25 13.9 10.17 13.72 10.03 13.58C9.88 13.43 9.7 13.36 9.5 13.36C9.29 13.36 9.11 13.43 8.97 13.58Z" fill="#9197B3" fill-opacity="1.000000" fill-rule="evenodd"/>
	<path id="Vector (Border)" d="M9.71 13.17C9.89 12.88 10.06 12.5 10.14 12.18C10.21 11.91 10.25 11.64 10.25 11.36C10.25 11.1 10.22 10.84 10.16 10.6C10.1 10.33 10.01 10.07 9.89 9.81C9.8 9.64 9.7 9.47 9.59 9.31C9.4 9.05 9.18 8.81 8.92 8.6C8.81 8.5 8.69 8.41 8.57 8.32C8.26 8.11 7.92 7.93 7.56 7.8C7.39 7.73 7.22 7.68 7.04 7.64C6.67 7.55 6.29 7.51 5.91 7.51C5.45 7.51 5.02 7.56 4.6 7.68C4.48 7.71 4.37 7.75 4.26 7.79C3.87 7.93 3.52 8.12 3.2 8.35C3.09 8.43 2.98 8.51 2.88 8.6C2.56 8.88 2.29 9.2 2.08 9.55C2.03 9.64 1.99 9.73 1.94 9.82C1.81 10.09 1.72 10.36 1.66 10.65C1.61 10.88 1.59 11.11 1.59 11.36C1.59 11.62 1.61 11.88 1.67 12.13C1.75 12.47 1.89 12.8 2.08 13.11C2.26 13.4 2.5 13.69 2.77 13.93C3.04 14.17 3.34 14.37 3.68 14.54C3.81 14.6 3.94 14.66 4.07 14.71C4.64 14.93 5.26 15.05 5.92 15.05C6.6 15.05 7.24 14.92 7.83 14.68C7.94 14.64 8.05 14.59 8.15 14.54C8.49 14.37 8.79 14.17 9.06 13.93C9.32 13.7 9.53 13.45 9.71 13.17ZM8.7 11.78C8.65 11.97 8.58 12.15 8.47 12.33C8.25 12.65 7.89 13 7.49 13.2C7.02 13.42 6.48 13.55 5.92 13.55C5.38 13.55 4.88 13.44 4.44 13.24C4.02 13.03 3.61 12.72 3.39 12.38C3.3 12.23 3.19 12 3.15 11.83C3.11 11.68 3.09 11.52 3.09 11.36C3.09 11.23 3.1 11.1 3.12 10.98C3.15 10.81 3.21 10.64 3.29 10.48C3.42 10.2 3.62 9.94 3.87 9.73C3.91 9.7 3.95 9.66 3.99 9.63C4.22 9.45 4.48 9.31 4.77 9.2C5.1 9.09 5.54 9.01 5.91 9.01C6.21 9.01 6.5 9.04 6.77 9.12C6.86 9.14 6.95 9.17 7.04 9.2C7.32 9.31 7.58 9.45 7.81 9.62C7.85 9.66 7.9 9.69 7.95 9.73C8.2 9.94 8.39 10.18 8.53 10.45C8.6 10.6 8.67 10.78 8.7 10.94C8.73 11.07 8.75 11.21 8.75 11.36C8.75 11.5 8.73 11.64 8.7 11.78Z" fill="#9197B3" fill-opacity="1.000000" fill-rule="evenodd"/>
	<path id="Vector (Border)" d="M10.13 14.99C10.21 14.7 10.25 14.41 10.25 14.11L10.25 11.36C10.25 11.12 10.22 10.89 10.18 10.67C10.12 10.38 10.03 10.09 9.89 9.82C9.84 9.72 9.79 9.62 9.73 9.52C9.53 9.18 9.26 8.87 8.95 8.59C8.83 8.49 8.72 8.4 8.6 8.31C8.28 8.1 7.95 7.92 7.58 7.79C7.41 7.72 7.24 7.67 7.06 7.63C6.69 7.54 6.32 7.5 5.93 7.5C5.52 7.5 5.13 7.54 4.76 7.64C4.59 7.68 4.43 7.73 4.27 7.78C3.88 7.93 3.52 8.12 3.19 8.36C3.09 8.43 2.99 8.51 2.9 8.59C2.59 8.86 2.33 9.17 2.12 9.51C2.06 9.61 2 9.71 1.95 9.82C1.82 10.09 1.73 10.37 1.67 10.65C1.62 10.88 1.6 11.12 1.6 11.36L1.6 14.11C1.6 14.4 1.63 14.68 1.7 14.95C1.76 15.18 1.85 15.41 1.96 15.63C2 15.71 2.05 15.79 2.1 15.87C2.31 16.22 2.59 16.53 2.93 16.8C3.32 17.11 3.79 17.37 4.3 17.54C4.34 17.55 4.39 17.57 4.43 17.58C4.91 17.72 5.41 17.79 5.93 17.79C6.47 17.79 6.98 17.72 7.47 17.56C7.99 17.4 8.51 17.13 8.91 16.81C9.24 16.55 9.52 16.24 9.73 15.9C9.79 15.81 9.84 15.72 9.88 15.63C9.99 15.42 10.07 15.21 10.13 14.99ZM8.75 11.36L8.75 14.11C8.75 14.29 8.72 14.47 8.67 14.64C8.64 14.75 8.6 14.85 8.55 14.95C8.42 15.21 8.23 15.44 7.98 15.64C7.72 15.84 7.42 16 7.08 16.12C6.72 16.24 6.33 16.29 5.93 16.29C5.52 16.29 5.14 16.23 4.77 16.11C4.43 16 4.13 15.84 3.87 15.63C3.62 15.43 3.43 15.2 3.3 14.94C3.24 14.83 3.2 14.72 3.16 14.6C3.12 14.44 3.1 14.28 3.1 14.11L3.1 11.36C3.1 11.23 3.11 11.11 3.13 10.99C3.16 10.81 3.22 10.64 3.3 10.47C3.44 10.21 3.65 9.93 3.89 9.72C4.13 9.53 4.48 9.31 4.79 9.19C4.87 9.17 4.94 9.14 5.02 9.12C5.31 9.04 5.61 9 5.93 9C6.23 9 6.52 9.03 6.8 9.11C6.89 9.13 6.97 9.16 7.06 9.19C7.34 9.3 7.6 9.44 7.83 9.61C7.88 9.65 7.92 9.68 7.97 9.72C8.17 9.9 8.33 10.1 8.46 10.32C8.49 10.37 8.52 10.42 8.54 10.47C8.63 10.64 8.68 10.82 8.72 11C8.74 11.12 8.75 11.24 8.75 11.36Z" fill="#9197B3" fill-opacity="1.000000" fill-rule="evenodd"/>
	<path id="Vector (Border)" d="M21.46 10.64C21.48 10.52 21.49 10.4 21.49 10.28L21.49 8.21C21.49 8.09 21.48 7.97 21.46 7.85C21.43 7.74 21.4 7.64 21.36 7.54C21.32 7.44 21.27 7.35 21.21 7.26C21.15 7.16 21.08 7.07 20.99 6.98C20.91 6.9 20.83 6.83 20.74 6.77C20.65 6.7 20.55 6.65 20.44 6.6C20.35 6.56 20.25 6.52 20.15 6.5C20.03 6.47 19.9 6.45 19.77 6.45L17.67 6.44C17.43 6.44 17.2 6.47 16.98 6.53C16.85 6.56 16.71 6.61 16.58 6.66C16.42 6.73 16.26 6.82 16.11 6.92C15.96 7.02 15.82 7.13 15.69 7.26C15.55 7.41 15.42 7.57 15.31 7.74C15.2 7.9 15.11 8.08 15.04 8.26C14.96 8.48 14.91 8.71 14.88 8.93C14.86 9.11 14.86 9.3 14.88 9.49C14.89 9.66 14.92 9.83 14.97 9.99C15.02 10.18 15.09 10.36 15.19 10.53C15.24 10.62 15.3 10.71 15.36 10.8C15.5 11 15.66 11.18 15.85 11.34C15.96 11.43 16.07 11.51 16.19 11.59C16.36 11.69 16.55 11.79 16.74 11.86C16.93 11.93 17.13 11.98 17.32 12.01C17.47 12.03 17.63 12.04 17.78 12.04L19.74 12.04C19.88 12.04 20.03 12.02 20.15 11.99C20.25 11.97 20.35 11.93 20.44 11.89C20.55 11.84 20.65 11.79 20.74 11.72C20.83 11.66 20.91 11.59 20.99 11.51C21.08 11.42 21.15 11.33 21.21 11.23C21.27 11.14 21.32 11.05 21.36 10.95C21.4 10.85 21.43 10.75 21.46 10.64ZM19.99 8.21L19.99 10.28C19.98 10.31 19.95 10.43 19.92 10.46C19.88 10.48 19.77 10.54 19.73 10.54L17.78 10.54C17.72 10.54 17.65 10.54 17.58 10.53C17.48 10.52 17.37 10.49 17.26 10.45C17.15 10.41 17.04 10.35 16.95 10.29C16.9 10.26 16.86 10.23 16.82 10.19C16.7 10.09 16.6 9.98 16.53 9.85C16.49 9.77 16.43 9.65 16.41 9.56C16.39 9.5 16.38 9.43 16.37 9.36C16.36 9.23 16.37 9.1 16.39 8.97C16.41 8.91 16.42 8.85 16.45 8.79C16.48 8.71 16.52 8.64 16.56 8.56C16.61 8.48 16.68 8.4 16.75 8.33C16.81 8.27 16.89 8.2 16.96 8.16C17.02 8.11 17.09 8.07 17.16 8.04C17.2 8.03 17.24 8.01 17.28 8C17.4 7.96 17.53 7.94 17.67 7.94L19.73 7.94C19.77 7.95 19.81 7.96 19.85 7.98C19.87 8 19.98 8.18 19.99 8.21Z" fill="#9197B3" fill-opacity="1.000000" fill-rule="evenodd"/>
	<path id="Vector (Border)" d="M0 5.75L0 7.75C0 8.17 0.33 8.5 0.75 8.5C1.16 8.5 1.5 8.17 1.5 7.75L1.5 5.75C1.5 5.16 1.58 4.61 1.75 4.11C1.9 3.68 2.11 3.29 2.38 2.95C2.48 2.84 2.67 2.63 2.78 2.53C3.01 2.32 3.27 2.14 3.55 2C3.99 1.77 4.48 1.62 5.03 1.55C5.25 1.51 5.5 1.5 5.75 1.5L14.75 1.5C15 1.5 15.21 1.51 15.37 1.53C15.92 1.6 16.46 1.75 16.91 1.98C17.2 2.13 17.46 2.31 17.7 2.52C17.81 2.62 17.92 2.73 18.02 2.85C18.05 2.88 18.08 2.92 18.11 2.96C18.38 3.29 18.59 3.67 18.74 4.1C18.91 4.6 19 5.15 19 5.75L19 6.45L17.67 6.45C17.43 6.45 17.2 6.47 16.98 6.53C16.85 6.56 16.71 6.61 16.58 6.66C16.42 6.73 16.26 6.82 16.11 6.92C15.96 7.02 15.82 7.13 15.69 7.27C15.55 7.41 15.42 7.57 15.31 7.74C15.2 7.9 15.11 8.08 15.04 8.26C14.97 8.46 14.92 8.65 14.89 8.85C14.86 9.06 14.86 9.28 14.88 9.5C14.89 9.63 14.91 9.76 14.94 9.89C15 10.11 15.08 10.32 15.19 10.53C15.24 10.62 15.3 10.71 15.36 10.8C15.5 11 15.66 11.18 15.85 11.34C15.96 11.43 16.07 11.51 16.19 11.59C16.36 11.69 16.55 11.79 16.74 11.86C16.93 11.93 17.13 11.98 17.32 12.01C17.47 12.03 17.63 12.05 17.79 12.05L19 12.05L19 12.75C19 13.39 18.89 13.99 18.69 14.52C18.53 14.92 18.32 15.28 18.06 15.6C17.99 15.68 17.92 15.76 17.84 15.84C17.76 15.92 17.68 15.99 17.6 16.06C17.28 16.32 16.92 16.53 16.52 16.69C15.99 16.89 15.39 17 14.75 17L12.25 17C11.83 17 11.5 17.33 11.5 17.75C11.5 18.17 11.83 18.5 12.25 18.5L14.75 18.5C15.58 18.5 16.35 18.36 17.06 18.09C17.56 17.89 18.02 17.64 18.42 17.32C18.59 17.19 18.75 17.05 18.9 16.9C19.05 16.75 19.19 16.59 19.32 16.42C19.64 16.02 19.89 15.56 20.09 15.06C20.36 14.35 20.5 13.58 20.5 12.75L20.5 11.3C20.5 11.09 20.42 10.91 20.28 10.76C20.13 10.62 19.95 10.55 19.75 10.55L17.79 10.55C17.72 10.55 17.65 10.54 17.58 10.53C17.48 10.52 17.37 10.49 17.26 10.45C17.15 10.41 17.04 10.35 16.95 10.29C16.9 10.26 16.86 10.23 16.82 10.19C16.7 10.09 16.6 9.98 16.53 9.85C16.5 9.8 16.46 9.71 16.44 9.66C16.4 9.56 16.38 9.46 16.37 9.35C16.36 9.25 16.36 9.15 16.38 9.05C16.39 8.96 16.41 8.88 16.45 8.79C16.48 8.71 16.52 8.64 16.56 8.56C16.61 8.48 16.68 8.4 16.75 8.33C16.81 8.27 16.89 8.2 16.96 8.16C17.02 8.11 17.09 8.07 17.16 8.04C17.2 8.03 17.24 8.01 17.28 8C17.4 7.96 17.53 7.95 17.67 7.95L19.75 7.95C19.95 7.95 20.13 7.87 20.28 7.73C20.42 7.58 20.5 7.4 20.5 7.2L20.5 5.75C20.5 4.98 20.38 4.27 20.15 3.61C19.97 3.09 19.73 2.62 19.42 2.19C19.33 2.08 19.25 1.97 19.16 1.87C18.99 1.67 18.81 1.5 18.62 1.33C18.31 1.06 17.97 0.83 17.59 0.64C16.98 0.33 16.32 0.14 15.6 0.05C15.36 0.01 15.08 0 14.75 0L5.75 0C5.43 0 5.13 0.02 4.83 0.06C4.11 0.15 3.46 0.35 2.86 0.66C2.49 0.86 2.15 1.08 1.85 1.35C1.66 1.52 1.48 1.69 1.31 1.89C1.23 1.99 1.15 2.09 1.07 2.2C0.76 2.63 0.51 3.1 0.33 3.63C0.11 4.28 0 4.99 0 5.75Z" fill="#9197B3" fill-opacity="1.000000" fill-rule="evenodd"/>
</svg>
